<mxfile host="app.diagrams.net" agent="Mozilla/5.0 (Windows NT 10.0; Win64; x64; rv:134.0) Gecko/20100101 Firefox/134.0" version="26.0.2" pages="6">
  <diagram name="Страница — 1" id="OmyJzAM3DbIjTTYe3HXy">
    <mxGraphModel dx="1338" dy="706" grid="1" gridSize="10" guides="1" tooltips="1" connect="1" arrows="1" fold="1" page="1" pageScale="1" pageWidth="827" pageHeight="1169" math="0" shadow="0">
      <root>
        <mxCell id="0" />
        <mxCell id="1" parent="0" />
        <mxCell id="9Pd92zd7ntM-Qkf9hffd-17" value="" style="rounded=0;whiteSpace=wrap;html=1;" vertex="1" parent="1">
          <mxGeometry x="300" y="140" width="200" height="189.49" as="geometry" />
        </mxCell>
        <mxCell id="9Pd92zd7ntM-Qkf9hffd-13" style="edgeStyle=orthogonalEdgeStyle;rounded=0;orthogonalLoop=1;jettySize=auto;html=1;entryX=0;entryY=0.5;entryDx=0;entryDy=0;" edge="1" parent="1" source="9Pd92zd7ntM-Qkf9hffd-4" target="9Pd92zd7ntM-Qkf9hffd-8">
          <mxGeometry relative="1" as="geometry" />
        </mxCell>
        <mxCell id="9Pd92zd7ntM-Qkf9hffd-4" value="&lt;div&gt;Рабочие станции&lt;/div&gt;" style="image;aspect=fixed;perimeter=ellipsePerimeter;html=1;align=center;shadow=0;dashed=0;spacingTop=3;image=img/lib/active_directory/laptop_client.svg;fontFamily=Times New Roman;fontSize=10;" vertex="1" parent="1">
          <mxGeometry x="150" y="149.49" width="45" height="50" as="geometry" />
        </mxCell>
        <mxCell id="9Pd92zd7ntM-Qkf9hffd-16" value="" style="edgeStyle=orthogonalEdgeStyle;rounded=0;orthogonalLoop=1;jettySize=auto;html=1;" edge="1" parent="1" source="9Pd92zd7ntM-Qkf9hffd-5" target="9Pd92zd7ntM-Qkf9hffd-9">
          <mxGeometry relative="1" as="geometry" />
        </mxCell>
        <mxCell id="9Pd92zd7ntM-Qkf9hffd-5" value="Windows Server" style="image;aspect=fixed;perimeter=ellipsePerimeter;html=1;align=center;shadow=0;dashed=0;spacingTop=3;image=img/lib/active_directory/windows_server_2.svg;fontFamily=Times New Roman;fontSize=10;" vertex="1" parent="1">
          <mxGeometry x="340" y="149.49" width="40" height="50" as="geometry" />
        </mxCell>
        <mxCell id="9Pd92zd7ntM-Qkf9hffd-11" style="edgeStyle=orthogonalEdgeStyle;rounded=0;orthogonalLoop=1;jettySize=auto;html=1;entryX=0;entryY=0.5;entryDx=0;entryDy=0;" edge="1" parent="1" source="9Pd92zd7ntM-Qkf9hffd-7" target="9Pd92zd7ntM-Qkf9hffd-4">
          <mxGeometry relative="1" as="geometry" />
        </mxCell>
        <mxCell id="9Pd92zd7ntM-Qkf9hffd-7" value="&lt;font style=&quot;font-size: 9px;&quot; face=&quot;Times New Roman&quot;&gt;Пользователи&lt;/font&gt;" style="image;aspect=fixed;perimeter=ellipsePerimeter;html=1;align=center;shadow=0;dashed=0;spacingTop=3;image=img/lib/active_directory/users.svg;" vertex="1" parent="1">
          <mxGeometry x="70" y="149.49" width="33" height="50" as="geometry" />
        </mxCell>
        <mxCell id="9Pd92zd7ntM-Qkf9hffd-14" value="" style="edgeStyle=orthogonalEdgeStyle;rounded=0;orthogonalLoop=1;jettySize=auto;html=1;" edge="1" parent="1" source="9Pd92zd7ntM-Qkf9hffd-8" target="9Pd92zd7ntM-Qkf9hffd-5">
          <mxGeometry relative="1" as="geometry" />
        </mxCell>
        <mxCell id="9Pd92zd7ntM-Qkf9hffd-8" value="&lt;div&gt;&lt;font face=&quot;Times New Roman&quot; style=&quot;font-size: 10px;&quot;&gt;Защищенное&amp;nbsp;&lt;/font&gt;&lt;/div&gt;&lt;div&gt;&lt;font face=&quot;Times New Roman&quot; style=&quot;font-size: 10px;&quot;&gt;подключение&lt;/font&gt;&lt;/div&gt;&lt;div&gt;&lt;font face=&quot;Times New Roman&quot; style=&quot;font-size: 10px;&quot;&gt;&lt;br&gt;&lt;/font&gt;&lt;/div&gt;" style="image;aspect=fixed;perimeter=ellipsePerimeter;html=1;align=center;shadow=0;dashed=0;spacingTop=3;image=img/lib/active_directory/secure.svg;" vertex="1" parent="1">
          <mxGeometry x="250" y="158.87" width="20" height="31.25" as="geometry" />
        </mxCell>
        <mxCell id="9Pd92zd7ntM-Qkf9hffd-9" value="ISS" style="image;aspect=fixed;perimeter=ellipsePerimeter;html=1;align=center;shadow=0;dashed=0;spacingTop=3;image=img/lib/active_directory/site_collection.svg;fontFamily=Times New Roman;fontSize=10;" vertex="1" parent="1">
          <mxGeometry x="430" y="151" width="50" height="47" as="geometry" />
        </mxCell>
        <mxCell id="9Pd92zd7ntM-Qkf9hffd-18" value="" style="edgeStyle=orthogonalEdgeStyle;rounded=0;orthogonalLoop=1;jettySize=auto;html=1;" edge="1" parent="1" source="9Pd92zd7ntM-Qkf9hffd-10" target="9Pd92zd7ntM-Qkf9hffd-5">
          <mxGeometry relative="1" as="geometry" />
        </mxCell>
        <mxCell id="9Pd92zd7ntM-Qkf9hffd-10" value="MS SQL Server" style="image;aspect=fixed;perimeter=ellipsePerimeter;html=1;align=center;shadow=0;dashed=0;spacingTop=3;image=img/lib/active_directory/sql_server.svg;fontFamily=Times New Roman;fontSize=10;" vertex="1" parent="1">
          <mxGeometry x="341.5" y="239.49" width="38.5" height="50" as="geometry" />
        </mxCell>
        <mxCell id="9Pd92zd7ntM-Qkf9hffd-19" style="edgeStyle=orthogonalEdgeStyle;rounded=0;orthogonalLoop=1;jettySize=auto;html=1;entryX=0;entryY=0.5;entryDx=0;entryDy=0;" edge="1" parent="1" source="9Pd92zd7ntM-Qkf9hffd-17" target="9Pd92zd7ntM-Qkf9hffd-7">
          <mxGeometry relative="1" as="geometry" />
        </mxCell>
      </root>
    </mxGraphModel>
  </diagram>
  <diagram id="Fq9Y8pEtbvPNmyzod-_P" name="Страница — 2">
    <mxGraphModel dx="1605" dy="847" grid="1" gridSize="10" guides="1" tooltips="1" connect="1" arrows="1" fold="1" page="1" pageScale="1" pageWidth="827" pageHeight="1169" math="0" shadow="0">
      <root>
        <mxCell id="0" />
        <mxCell id="1" parent="0" />
        <mxCell id="E52ri919d2Cw3gWBkOec-14" style="edgeStyle=orthogonalEdgeStyle;rounded=0;orthogonalLoop=1;jettySize=auto;html=1;fontFamily=Times New Roman;" edge="1" parent="1" source="E52ri919d2Cw3gWBkOec-1" target="E52ri919d2Cw3gWBkOec-2">
          <mxGeometry relative="1" as="geometry" />
        </mxCell>
        <mxCell id="E52ri919d2Cw3gWBkOec-15" style="edgeStyle=orthogonalEdgeStyle;rounded=0;orthogonalLoop=1;jettySize=auto;html=1;entryX=0.5;entryY=0;entryDx=0;entryDy=0;fontFamily=Times New Roman;" edge="1" parent="1" source="E52ri919d2Cw3gWBkOec-1" target="E52ri919d2Cw3gWBkOec-3">
          <mxGeometry relative="1" as="geometry" />
        </mxCell>
        <mxCell id="E52ri919d2Cw3gWBkOec-1" value="Функциональные возможности" style="rounded=0;whiteSpace=wrap;html=1;fontFamily=Times New Roman;" vertex="1" parent="1">
          <mxGeometry x="190" y="80" width="290" height="60" as="geometry" />
        </mxCell>
        <mxCell id="E52ri919d2Cw3gWBkOec-4" style="edgeStyle=orthogonalEdgeStyle;rounded=0;orthogonalLoop=1;jettySize=auto;html=1;fontFamily=Times New Roman;" edge="1" parent="1" source="E52ri919d2Cw3gWBkOec-2" target="E52ri919d2Cw3gWBkOec-11">
          <mxGeometry relative="1" as="geometry">
            <mxPoint x="40" y="260" as="targetPoint" />
          </mxGeometry>
        </mxCell>
        <mxCell id="E52ri919d2Cw3gWBkOec-13" style="edgeStyle=orthogonalEdgeStyle;rounded=0;orthogonalLoop=1;jettySize=auto;html=1;fontFamily=Times New Roman;" edge="1" parent="1" source="E52ri919d2Cw3gWBkOec-2" target="E52ri919d2Cw3gWBkOec-12">
          <mxGeometry relative="1" as="geometry" />
        </mxCell>
        <mxCell id="E52ri919d2Cw3gWBkOec-16" style="edgeStyle=orthogonalEdgeStyle;rounded=0;orthogonalLoop=1;jettySize=auto;html=1;entryX=0.5;entryY=0;entryDx=0;entryDy=0;fontFamily=Times New Roman;" edge="1" parent="1" source="E52ri919d2Cw3gWBkOec-2" target="E52ri919d2Cw3gWBkOec-17">
          <mxGeometry relative="1" as="geometry">
            <mxPoint x="400" y="300" as="targetPoint" />
          </mxGeometry>
        </mxCell>
        <mxCell id="E52ri919d2Cw3gWBkOec-2" value="Основные функции" style="rounded=0;whiteSpace=wrap;html=1;fontFamily=Times New Roman;" vertex="1" parent="1">
          <mxGeometry x="90" y="180" width="200" height="40" as="geometry" />
        </mxCell>
        <mxCell id="E52ri919d2Cw3gWBkOec-8" style="edgeStyle=orthogonalEdgeStyle;rounded=0;orthogonalLoop=1;jettySize=auto;html=1;fontFamily=Times New Roman;" edge="1" parent="1" source="E52ri919d2Cw3gWBkOec-3">
          <mxGeometry relative="1" as="geometry">
            <mxPoint x="550" y="450" as="targetPoint" />
          </mxGeometry>
        </mxCell>
        <mxCell id="E52ri919d2Cw3gWBkOec-9" style="edgeStyle=orthogonalEdgeStyle;rounded=0;orthogonalLoop=1;jettySize=auto;html=1;entryX=0;entryY=0.5;entryDx=0;entryDy=0;fontFamily=Times New Roman;" edge="1" parent="1" source="E52ri919d2Cw3gWBkOec-3" target="E52ri919d2Cw3gWBkOec-5">
          <mxGeometry relative="1" as="geometry" />
        </mxCell>
        <mxCell id="E52ri919d2Cw3gWBkOec-3" value="Служебные функции" style="rounded=0;whiteSpace=wrap;html=1;fontFamily=Times New Roman;" vertex="1" parent="1">
          <mxGeometry x="580" y="170" width="200" height="40" as="geometry" />
        </mxCell>
        <mxCell id="E52ri919d2Cw3gWBkOec-5" value="Авторизация через систему LDAP" style="whiteSpace=wrap;html=1;rounded=0;fontFamily=Times New Roman;" vertex="1" parent="1">
          <mxGeometry x="620" y="250" width="180" height="60" as="geometry" />
        </mxCell>
        <mxCell id="E52ri919d2Cw3gWBkOec-11" value="Учет смен" style="rounded=0;whiteSpace=wrap;html=1;fontFamily=Times New Roman;fillColor=#f5f5f5;fontColor=#333333;strokeColor=#666666;" vertex="1" parent="1">
          <mxGeometry x="20" y="280" width="150" height="30" as="geometry" />
        </mxCell>
        <mxCell id="E52ri919d2Cw3gWBkOec-12" value="Учет отпусков" style="rounded=0;whiteSpace=wrap;html=1;fontFamily=Times New Roman;fillColor=#f5f5f5;fontColor=#333333;strokeColor=#666666;" vertex="1" parent="1">
          <mxGeometry x="190" y="280" width="150" height="30" as="geometry" />
        </mxCell>
        <mxCell id="E52ri919d2Cw3gWBkOec-17" value="Справочники" style="rounded=0;whiteSpace=wrap;html=1;fontFamily=Times New Roman;fillColor=#f5f5f5;fontColor=#333333;strokeColor=#666666;" vertex="1" parent="1">
          <mxGeometry x="360" y="280" width="150" height="30" as="geometry" />
        </mxCell>
        <mxCell id="E52ri919d2Cw3gWBkOec-18" value="Сотрудники" style="rounded=0;whiteSpace=wrap;html=1;fontFamily=Times New Roman;" vertex="1" parent="1">
          <mxGeometry x="360" y="310" width="150" height="30" as="geometry" />
        </mxCell>
        <mxCell id="E52ri919d2Cw3gWBkOec-20" value="Отображение календаря смен" style="rounded=0;whiteSpace=wrap;html=1;fontFamily=Times New Roman;" vertex="1" parent="1">
          <mxGeometry x="20" y="310" width="150" height="40" as="geometry" />
        </mxCell>
        <mxCell id="E52ri919d2Cw3gWBkOec-21" value="Отпуска" style="rounded=0;whiteSpace=wrap;html=1;fontFamily=Times New Roman;" vertex="1" parent="1">
          <mxGeometry x="360" y="370" width="150" height="30" as="geometry" />
        </mxCell>
        <mxCell id="E52ri919d2Cw3gWBkOec-22" value="Праздничные дни и выходные" style="rounded=0;whiteSpace=wrap;html=1;fontFamily=Times New Roman;" vertex="1" parent="1">
          <mxGeometry x="360" y="400" width="150" height="40" as="geometry" />
        </mxCell>
        <mxCell id="E52ri919d2Cw3gWBkOec-23" value="&lt;div&gt;Роли сотрудников&lt;/div&gt;" style="rounded=0;whiteSpace=wrap;html=1;fontFamily=Times New Roman;" vertex="1" parent="1">
          <mxGeometry x="360" y="440" width="150" height="40" as="geometry" />
        </mxCell>
        <mxCell id="htHN55uxxE39DVt4KX8y-1" value="Доба" style="rounded=0;whiteSpace=wrap;html=1;fontFamily=Times New Roman;" vertex="1" parent="1">
          <mxGeometry x="360" y="480" width="150" height="40" as="geometry" />
        </mxCell>
        <mxCell id="htHN55uxxE39DVt4KX8y-3" value="Сотрудники" style="rounded=0;whiteSpace=wrap;html=1;fontFamily=Times New Roman;" vertex="1" parent="1">
          <mxGeometry x="190" y="310" width="150" height="30" as="geometry" />
        </mxCell>
        <mxCell id="htHN55uxxE39DVt4KX8y-4" value="Функциональные возможности" style="rounded=0;whiteSpace=wrap;html=1;fontFamily=Times New Roman;" vertex="1" parent="1">
          <mxGeometry x="200" y="90" width="290" height="60" as="geometry" />
        </mxCell>
      </root>
    </mxGraphModel>
  </diagram>
  <diagram id="truBsPdJBooCdD4toQUJ" name="Страница — 3">
    <mxGraphModel dx="1107" dy="584" grid="1" gridSize="10" guides="1" tooltips="1" connect="1" arrows="1" fold="1" page="1" pageScale="1" pageWidth="827" pageHeight="1169" math="0" shadow="0">
      <root>
        <mxCell id="0" />
        <mxCell id="1" parent="0" />
        <mxCell id="AC2AfzYz37yliMAalLsG-5" value="Система отслеживания смен сотрудников" style="rounded=0;whiteSpace=wrap;html=1;fontFamily=Times New Roman;" vertex="1" parent="1">
          <mxGeometry x="320" y="180" width="240" height="140" as="geometry" />
        </mxCell>
        <mxCell id="AC2AfzYz37yliMAalLsG-7" value="" style="endArrow=classic;html=1;rounded=0;fontFamily=Times New Roman;" edge="1" parent="1">
          <mxGeometry width="50" height="50" relative="1" as="geometry">
            <mxPoint x="160" y="230" as="sourcePoint" />
            <mxPoint x="320" y="230" as="targetPoint" />
          </mxGeometry>
        </mxCell>
        <mxCell id="AC2AfzYz37yliMAalLsG-10" value="" style="endArrow=classic;html=1;rounded=0;strokeColor=#33FF99;fontFamily=Times New Roman;" edge="1" parent="1">
          <mxGeometry width="50" height="50" relative="1" as="geometry">
            <mxPoint x="410" y="80" as="sourcePoint" />
            <mxPoint x="410" y="180" as="targetPoint" />
          </mxGeometry>
        </mxCell>
        <mxCell id="AC2AfzYz37yliMAalLsG-14" value="" style="endArrow=classic;html=1;rounded=0;fontFamily=Times New Roman;" edge="1" parent="1">
          <mxGeometry width="50" height="50" relative="1" as="geometry">
            <mxPoint x="360" y="440" as="sourcePoint" />
            <mxPoint x="360" y="320" as="targetPoint" />
          </mxGeometry>
        </mxCell>
        <mxCell id="AC2AfzYz37yliMAalLsG-15" value="" style="endArrow=classic;html=1;rounded=0;fontFamily=Times New Roman;" edge="1" parent="1">
          <mxGeometry width="50" height="50" relative="1" as="geometry">
            <mxPoint x="560" y="200" as="sourcePoint" />
            <mxPoint x="720" y="200" as="targetPoint" />
          </mxGeometry>
        </mxCell>
        <mxCell id="AC2AfzYz37yliMAalLsG-16" value="" style="endArrow=classic;html=1;rounded=0;fontFamily=Times New Roman;" edge="1" parent="1">
          <mxGeometry width="50" height="50" relative="1" as="geometry">
            <mxPoint x="560" y="249.66" as="sourcePoint" />
            <mxPoint x="720" y="250" as="targetPoint" />
          </mxGeometry>
        </mxCell>
        <mxCell id="AC2AfzYz37yliMAalLsG-17" value="" style="endArrow=classic;html=1;rounded=0;fontFamily=Times New Roman;" edge="1" parent="1">
          <mxGeometry width="50" height="50" relative="1" as="geometry">
            <mxPoint x="570" y="300" as="sourcePoint" />
            <mxPoint x="720" y="300" as="targetPoint" />
          </mxGeometry>
        </mxCell>
        <mxCell id="AC2AfzYz37yliMAalLsG-18" value="A0" style="rounded=0;whiteSpace=wrap;html=1;fontColor=default;labelBorderColor=none;fillColor=default;strokeColor=default;fontFamily=Times New Roman;" vertex="1" parent="1">
          <mxGeometry x="530" y="300" width="30" height="20" as="geometry" />
        </mxCell>
        <mxCell id="AC2AfzYz37yliMAalLsG-19" value="" style="endArrow=classic;html=1;rounded=0;fontFamily=Times New Roman;" edge="1" parent="1">
          <mxGeometry width="50" height="50" relative="1" as="geometry">
            <mxPoint x="160" y="280" as="sourcePoint" />
            <mxPoint x="320" y="279.65999999999997" as="targetPoint" />
          </mxGeometry>
        </mxCell>
        <mxCell id="AC2AfzYz37yliMAalLsG-21" value="Правила рабочего расписания" style="rounded=0;whiteSpace=wrap;html=1;strokeColor=none;fillColor=none;fontFamily=Times New Roman;" vertex="1" parent="1">
          <mxGeometry x="424" y="80" width="46" height="70" as="geometry" />
        </mxCell>
        <mxCell id="AC2AfzYz37yliMAalLsG-22" value="" style="endArrow=classic;html=1;rounded=0;strokeColor=#84a5e8;fontFamily=Times New Roman;" edge="1" parent="1">
          <mxGeometry width="50" height="50" relative="1" as="geometry">
            <mxPoint x="330" y="80" as="sourcePoint" />
            <mxPoint x="330" y="180" as="targetPoint" />
          </mxGeometry>
        </mxCell>
        <mxCell id="AC2AfzYz37yliMAalLsG-23" value="Устав компании" style="rounded=0;whiteSpace=wrap;html=1;strokeColor=none;fillColor=none;fontFamily=Times New Roman;" vertex="1" parent="1">
          <mxGeometry x="344" y="80" width="46" height="70" as="geometry" />
        </mxCell>
        <mxCell id="AC2AfzYz37yliMAalLsG-28" value="Решение проблемы с ведением смен" style="rounded=0;whiteSpace=wrap;html=1;strokeColor=none;fillColor=none;fontFamily=Times New Roman;" vertex="1" parent="1">
          <mxGeometry x="560" y="250" width="150" height="70" as="geometry" />
        </mxCell>
        <mxCell id="AC2AfzYz37yliMAalLsG-29" value="Отчетность по сменам" style="rounded=0;whiteSpace=wrap;html=1;strokeColor=none;fillColor=none;fontFamily=Times New Roman;" vertex="1" parent="1">
          <mxGeometry x="560" y="200" width="150" height="70" as="geometry" />
        </mxCell>
        <mxCell id="AC2AfzYz37yliMAalLsG-30" value="Своевременное оповещение об изменениях" style="rounded=0;whiteSpace=wrap;html=1;strokeColor=none;fillColor=none;fontFamily=Times New Roman;" vertex="1" parent="1">
          <mxGeometry x="560" y="140" width="150" height="70" as="geometry" />
        </mxCell>
        <mxCell id="AC2AfzYz37yliMAalLsG-31" value="Сотрудники и их должности" style="rounded=0;whiteSpace=wrap;html=1;strokeColor=none;fillColor=none;fontFamily=Times New Roman;" vertex="1" parent="1">
          <mxGeometry x="160" y="170" width="150" height="70" as="geometry" />
        </mxCell>
        <mxCell id="AC2AfzYz37yliMAalLsG-35" value="Рабочие смены" style="rounded=0;whiteSpace=wrap;html=1;strokeColor=none;fillColor=none;fontFamily=Times New Roman;" vertex="1" parent="1">
          <mxGeometry x="160" y="230" width="150" height="70" as="geometry" />
        </mxCell>
        <mxCell id="AC2AfzYz37yliMAalLsG-36" value="" style="swimlane;startSize=0;" vertex="1" parent="1">
          <mxGeometry x="100" y="20" width="670" height="470" as="geometry" />
        </mxCell>
        <mxCell id="AC2AfzYz37yliMAalLsG-27" value="Сотрудник" style="rounded=0;whiteSpace=wrap;html=1;strokeColor=none;fillColor=none;fontFamily=Times New Roman;" vertex="1" parent="AC2AfzYz37yliMAalLsG-36">
          <mxGeometry x="273" y="325" width="46" height="70" as="geometry" />
        </mxCell>
        <mxCell id="AC2AfzYz37yliMAalLsG-37" value="" style="endArrow=classic;html=1;rounded=0;fontFamily=Times New Roman;" edge="1" parent="AC2AfzYz37yliMAalLsG-36">
          <mxGeometry width="50" height="50" relative="1" as="geometry">
            <mxPoint x="341.65999999999997" y="420" as="sourcePoint" />
            <mxPoint x="341.65999999999997" y="300" as="targetPoint" />
          </mxGeometry>
        </mxCell>
        <mxCell id="AC2AfzYz37yliMAalLsG-38" value="Менеджер" style="rounded=0;whiteSpace=wrap;html=1;strokeColor=none;fillColor=none;fontFamily=Times New Roman;" vertex="1" parent="AC2AfzYz37yliMAalLsG-36">
          <mxGeometry x="350" y="325" width="46" height="70" as="geometry" />
        </mxCell>
        <mxCell id="AC2AfzYz37yliMAalLsG-39" value="" style="endArrow=classic;html=1;rounded=0;fontFamily=Times New Roman;" edge="1" parent="AC2AfzYz37yliMAalLsG-36">
          <mxGeometry width="50" height="50" relative="1" as="geometry">
            <mxPoint x="420" y="420" as="sourcePoint" />
            <mxPoint x="420" y="300" as="targetPoint" />
          </mxGeometry>
        </mxCell>
        <mxCell id="AC2AfzYz37yliMAalLsG-40" value="Система" style="rounded=0;whiteSpace=wrap;html=1;strokeColor=none;fillColor=none;fontFamily=Times New Roman;" vertex="1" parent="AC2AfzYz37yliMAalLsG-36">
          <mxGeometry x="430" y="325" width="46" height="70" as="geometry" />
        </mxCell>
      </root>
    </mxGraphModel>
  </diagram>
  <diagram id="xTyuoHAPU4VqBgp4NmIV" name="Страница — 4">
    <mxGraphModel dx="2164" dy="1106" grid="1" gridSize="10" guides="1" tooltips="1" connect="1" arrows="1" fold="1" page="1" pageScale="1" pageWidth="827" pageHeight="1169" math="0" shadow="0">
      <root>
        <mxCell id="0" />
        <mxCell id="1" parent="0" />
        <mxCell id="6ZEMfsmQP9dzRL2HBxFQ-7" style="edgeStyle=orthogonalEdgeStyle;rounded=0;orthogonalLoop=1;jettySize=auto;html=1;" edge="1" parent="1" source="6ZEMfsmQP9dzRL2HBxFQ-1" target="6ZEMfsmQP9dzRL2HBxFQ-2">
          <mxGeometry relative="1" as="geometry" />
        </mxCell>
        <mxCell id="6ZEMfsmQP9dzRL2HBxFQ-8" style="edgeStyle=orthogonalEdgeStyle;rounded=0;orthogonalLoop=1;jettySize=auto;html=1;" edge="1" parent="1" source="6ZEMfsmQP9dzRL2HBxFQ-1" target="6ZEMfsmQP9dzRL2HBxFQ-3">
          <mxGeometry relative="1" as="geometry" />
        </mxCell>
        <mxCell id="6ZEMfsmQP9dzRL2HBxFQ-1" value="Дерево функций" style="rounded=0;whiteSpace=wrap;html=1;fontFamily=Times New Roman;fontSize=14;" vertex="1" parent="1">
          <mxGeometry x="300" y="30" width="200" height="40" as="geometry" />
        </mxCell>
        <mxCell id="6ZEMfsmQP9dzRL2HBxFQ-6" value="" style="edgeStyle=orthogonalEdgeStyle;rounded=0;orthogonalLoop=1;jettySize=auto;html=1;" edge="1" parent="1" source="6ZEMfsmQP9dzRL2HBxFQ-2" target="6ZEMfsmQP9dzRL2HBxFQ-5">
          <mxGeometry relative="1" as="geometry" />
        </mxCell>
        <mxCell id="6ZEMfsmQP9dzRL2HBxFQ-2" value="Основные функции" style="rounded=0;whiteSpace=wrap;html=1;fontFamily=Times New Roman;fontSize=14;" vertex="1" parent="1">
          <mxGeometry x="150" y="120" width="200" height="40" as="geometry" />
        </mxCell>
        <mxCell id="dpw2OIC5H1fviliWKMYs-7" value="" style="edgeStyle=orthogonalEdgeStyle;rounded=0;orthogonalLoop=1;jettySize=auto;html=1;" edge="1" parent="1" source="6ZEMfsmQP9dzRL2HBxFQ-3" target="dpw2OIC5H1fviliWKMYs-5">
          <mxGeometry relative="1" as="geometry" />
        </mxCell>
        <mxCell id="6ZEMfsmQP9dzRL2HBxFQ-3" value="Служебные функции" style="rounded=0;whiteSpace=wrap;html=1;fontFamily=Times New Roman;fontSize=14;" vertex="1" parent="1">
          <mxGeometry x="450" y="120" width="200" height="40" as="geometry" />
        </mxCell>
        <mxCell id="SFhWuwt1u-fMNrKgruZ6-29" style="edgeStyle=orthogonalEdgeStyle;rounded=0;orthogonalLoop=1;jettySize=auto;html=1;entryX=0;entryY=0.5;entryDx=0;entryDy=0;" edge="1" parent="1" source="6ZEMfsmQP9dzRL2HBxFQ-5" target="dpw2OIC5H1fviliWKMYs-1">
          <mxGeometry relative="1" as="geometry" />
        </mxCell>
        <mxCell id="SFhWuwt1u-fMNrKgruZ6-30" style="edgeStyle=orthogonalEdgeStyle;rounded=0;orthogonalLoop=1;jettySize=auto;html=1;entryX=0;entryY=0.5;entryDx=0;entryDy=0;" edge="1" parent="1" source="6ZEMfsmQP9dzRL2HBxFQ-5" target="dpw2OIC5H1fviliWKMYs-6">
          <mxGeometry relative="1" as="geometry" />
        </mxCell>
        <mxCell id="SFhWuwt1u-fMNrKgruZ6-32" style="edgeStyle=orthogonalEdgeStyle;rounded=0;orthogonalLoop=1;jettySize=auto;html=1;entryX=0;entryY=0.5;entryDx=0;entryDy=0;" edge="1" parent="1" source="6ZEMfsmQP9dzRL2HBxFQ-5" target="SFhWuwt1u-fMNrKgruZ6-31">
          <mxGeometry relative="1" as="geometry" />
        </mxCell>
        <mxCell id="6ZEMfsmQP9dzRL2HBxFQ-5" value="Главное меню" style="rounded=0;whiteSpace=wrap;html=1;fontSize=14;fontFamily=Times New Roman;" vertex="1" parent="1">
          <mxGeometry x="30" y="190" width="190" height="60" as="geometry" />
        </mxCell>
        <mxCell id="dpw2OIC5H1fviliWKMYs-1" value="Расписание" style="whiteSpace=wrap;html=1;fontSize=14;fontFamily=Times New Roman;rounded=0;" vertex="1" parent="1">
          <mxGeometry x="220" y="300" width="180" height="60" as="geometry" />
        </mxCell>
        <mxCell id="dpw2OIC5H1fviliWKMYs-9" value="" style="edgeStyle=orthogonalEdgeStyle;rounded=0;orthogonalLoop=1;jettySize=auto;html=1;" edge="1" parent="1" source="dpw2OIC5H1fviliWKMYs-5" target="dpw2OIC5H1fviliWKMYs-8">
          <mxGeometry relative="1" as="geometry" />
        </mxCell>
        <mxCell id="SFhWuwt1u-fMNrKgruZ6-15" style="edgeStyle=orthogonalEdgeStyle;rounded=0;orthogonalLoop=1;jettySize=auto;html=1;entryX=0;entryY=0.5;entryDx=0;entryDy=0;" edge="1" parent="1" source="dpw2OIC5H1fviliWKMYs-5" target="SFhWuwt1u-fMNrKgruZ6-2">
          <mxGeometry relative="1" as="geometry" />
        </mxCell>
        <mxCell id="SFhWuwt1u-fMNrKgruZ6-17" style="edgeStyle=orthogonalEdgeStyle;rounded=0;orthogonalLoop=1;jettySize=auto;html=1;entryX=0;entryY=0.5;entryDx=0;entryDy=0;" edge="1" parent="1" source="dpw2OIC5H1fviliWKMYs-5" target="SFhWuwt1u-fMNrKgruZ6-5">
          <mxGeometry relative="1" as="geometry" />
        </mxCell>
        <mxCell id="SFhWuwt1u-fMNrKgruZ6-21" style="edgeStyle=orthogonalEdgeStyle;rounded=0;orthogonalLoop=1;jettySize=auto;html=1;entryX=1;entryY=0.5;entryDx=0;entryDy=0;" edge="1" parent="1" source="dpw2OIC5H1fviliWKMYs-5" target="SFhWuwt1u-fMNrKgruZ6-13">
          <mxGeometry relative="1" as="geometry">
            <Array as="points">
              <mxPoint x="680" y="220" />
              <mxPoint x="680" y="545" />
            </Array>
          </mxGeometry>
        </mxCell>
        <mxCell id="SFhWuwt1u-fMNrKgruZ6-23" style="edgeStyle=orthogonalEdgeStyle;rounded=0;orthogonalLoop=1;jettySize=auto;html=1;entryX=1;entryY=0.5;entryDx=0;entryDy=0;" edge="1" parent="1" source="dpw2OIC5H1fviliWKMYs-5" target="SFhWuwt1u-fMNrKgruZ6-19">
          <mxGeometry relative="1" as="geometry">
            <Array as="points">
              <mxPoint x="680" y="220" />
              <mxPoint x="680" y="730" />
            </Array>
          </mxGeometry>
        </mxCell>
        <mxCell id="SFhWuwt1u-fMNrKgruZ6-28" style="edgeStyle=orthogonalEdgeStyle;rounded=0;orthogonalLoop=1;jettySize=auto;html=1;entryX=1;entryY=0.25;entryDx=0;entryDy=0;" edge="1" parent="1" source="dpw2OIC5H1fviliWKMYs-5" target="SFhWuwt1u-fMNrKgruZ6-24">
          <mxGeometry relative="1" as="geometry">
            <Array as="points">
              <mxPoint x="680" y="220" />
              <mxPoint x="680" y="805" />
            </Array>
          </mxGeometry>
        </mxCell>
        <mxCell id="dpw2OIC5H1fviliWKMYs-5" value="Административная панель" style="whiteSpace=wrap;html=1;fontSize=14;fontFamily=Times New Roman;rounded=0;" vertex="1" parent="1">
          <mxGeometry x="460" y="190" width="180" height="60" as="geometry" />
        </mxCell>
        <mxCell id="dpw2OIC5H1fviliWKMYs-6" value="Отпуска" style="whiteSpace=wrap;html=1;fontSize=14;fontFamily=Times New Roman;rounded=0;" vertex="1" parent="1">
          <mxGeometry x="220" y="400" width="180" height="60" as="geometry" />
        </mxCell>
        <mxCell id="dpw2OIC5H1fviliWKMYs-8" value="Администраторы" style="rounded=0;whiteSpace=wrap;html=1;fontSize=14;fontFamily=Times New Roman;" vertex="1" parent="1">
          <mxGeometry x="730" y="190" width="220" height="60" as="geometry" />
        </mxCell>
        <mxCell id="dpw2OIC5H1fviliWKMYs-10" value="&lt;div&gt;+ Добавление()&lt;/div&gt;&lt;div&gt;+ Изменение()&lt;br&gt;&lt;/div&gt;&lt;div&gt;+ Удаление()&lt;br&gt;+ Обновление()&lt;br&gt;&lt;/div&gt;" style="rounded=0;whiteSpace=wrap;html=1;fontSize=14;fontFamily=Times New Roman;" vertex="1" parent="1">
          <mxGeometry x="730" y="250" width="220" height="80" as="geometry" />
        </mxCell>
        <mxCell id="SFhWuwt1u-fMNrKgruZ6-2" value="Рабочие смены" style="rounded=0;whiteSpace=wrap;html=1;fontSize=14;fontFamily=Times New Roman;" vertex="1" parent="1">
          <mxGeometry x="730" y="350" width="120" height="60" as="geometry" />
        </mxCell>
        <mxCell id="SFhWuwt1u-fMNrKgruZ6-4" value="&lt;div&gt;+ Добавление()&lt;/div&gt;&lt;div&gt;+ Изменение()&lt;br&gt;&lt;/div&gt;&lt;div&gt;+ Удаление()&lt;br&gt;+ Обновление()&lt;br&gt;&lt;/div&gt;" style="rounded=0;whiteSpace=wrap;html=1;fontSize=14;fontFamily=Times New Roman;" vertex="1" parent="1">
          <mxGeometry x="730" y="410" width="120" height="80" as="geometry" />
        </mxCell>
        <mxCell id="SFhWuwt1u-fMNrKgruZ6-5" value="Сотрудники" style="rounded=0;whiteSpace=wrap;html=1;fontSize=14;fontFamily=Times New Roman;" vertex="1" parent="1">
          <mxGeometry x="730" y="515" width="120" height="60" as="geometry" />
        </mxCell>
        <mxCell id="SFhWuwt1u-fMNrKgruZ6-6" value="&lt;div&gt;+ Добавление()&lt;/div&gt;&lt;div&gt;+ Изменение()&lt;br&gt;&lt;/div&gt;&lt;div&gt;+ Удаление()&lt;br&gt;+ Обновление()&lt;br&gt;&lt;/div&gt;" style="rounded=0;whiteSpace=wrap;html=1;fontSize=14;fontFamily=Times New Roman;" vertex="1" parent="1">
          <mxGeometry x="730" y="575" width="120" height="80" as="geometry" />
        </mxCell>
        <mxCell id="SFhWuwt1u-fMNrKgruZ6-7" value="Календари и праздники" style="rounded=0;whiteSpace=wrap;html=1;fontSize=14;fontFamily=Times New Roman;" vertex="1" parent="1">
          <mxGeometry x="730" y="690" width="120" height="60" as="geometry" />
        </mxCell>
        <mxCell id="SFhWuwt1u-fMNrKgruZ6-8" value="&lt;div&gt;+ Добавление()&lt;/div&gt;&lt;div&gt;+ Изменение()&lt;br&gt;&lt;/div&gt;&lt;div&gt;+ Удаление()&lt;br&gt;+ Обновление()&lt;br&gt;&lt;/div&gt;" style="rounded=0;whiteSpace=wrap;html=1;fontSize=14;fontFamily=Times New Roman;" vertex="1" parent="1">
          <mxGeometry x="730" y="750" width="120" height="80" as="geometry" />
        </mxCell>
        <mxCell id="SFhWuwt1u-fMNrKgruZ6-9" value="Технические функции администратора" style="rounded=0;whiteSpace=wrap;html=1;fontSize=14;fontFamily=Times New Roman;" vertex="1" parent="1">
          <mxGeometry x="450" y="300" width="220" height="60" as="geometry" />
        </mxCell>
        <mxCell id="SFhWuwt1u-fMNrKgruZ6-11" value="Загрузка расписания" style="rounded=0;whiteSpace=wrap;html=1;fontSize=14;fontFamily=Times New Roman;" vertex="1" parent="1">
          <mxGeometry x="450" y="360" width="220" height="40" as="geometry" />
        </mxCell>
        <mxCell id="SFhWuwt1u-fMNrKgruZ6-12" value="Очистка расписания" style="rounded=0;whiteSpace=wrap;html=1;fontSize=14;fontFamily=Times New Roman;" vertex="1" parent="1">
          <mxGeometry x="450" y="400" width="220" height="40" as="geometry" />
        </mxCell>
        <mxCell id="SFhWuwt1u-fMNrKgruZ6-13" value="Команды" style="rounded=0;whiteSpace=wrap;html=1;fontSize=14;fontFamily=Times New Roman;" vertex="1" parent="1">
          <mxGeometry x="530" y="515" width="120" height="60" as="geometry" />
        </mxCell>
        <mxCell id="SFhWuwt1u-fMNrKgruZ6-14" value="&lt;div&gt;+ Добавление()&lt;/div&gt;&lt;div&gt;+ Изменение()&lt;br&gt;&lt;/div&gt;&lt;div&gt;+ Удаление()&lt;br&gt;+ Обновление()&lt;br&gt;&lt;/div&gt;" style="rounded=0;whiteSpace=wrap;html=1;fontSize=14;fontFamily=Times New Roman;" vertex="1" parent="1">
          <mxGeometry x="530" y="575" width="120" height="80" as="geometry" />
        </mxCell>
        <mxCell id="SFhWuwt1u-fMNrKgruZ6-19" value="Обмен сменами" style="rounded=0;whiteSpace=wrap;html=1;fontSize=14;fontFamily=Times New Roman;" vertex="1" parent="1">
          <mxGeometry x="530" y="700" width="120" height="60" as="geometry" />
        </mxCell>
        <mxCell id="SFhWuwt1u-fMNrKgruZ6-24" value="Роли" style="rounded=0;whiteSpace=wrap;html=1;fontSize=14;fontFamily=Times New Roman;" vertex="1" parent="1">
          <mxGeometry x="530" y="790" width="120" height="60" as="geometry" />
        </mxCell>
        <mxCell id="SFhWuwt1u-fMNrKgruZ6-25" value="&lt;div&gt;+ Добавление()&lt;/div&gt;&lt;div&gt;+ Изменение()&lt;br&gt;&lt;/div&gt;&lt;div&gt;+ Удаление()&lt;br&gt;+ Обновление()&lt;br&gt;&lt;/div&gt;" style="rounded=0;whiteSpace=wrap;html=1;fontSize=14;fontFamily=Times New Roman;" vertex="1" parent="1">
          <mxGeometry x="530" y="850" width="120" height="80" as="geometry" />
        </mxCell>
        <mxCell id="SFhWuwt1u-fMNrKgruZ6-31" value="Роли" style="whiteSpace=wrap;html=1;fontSize=14;fontFamily=Times New Roman;rounded=0;" vertex="1" parent="1">
          <mxGeometry x="220" y="500" width="180" height="60" as="geometry" />
        </mxCell>
      </root>
    </mxGraphModel>
  </diagram>
  <diagram id="XGyBxlf3eYNRiyR4IQVB" name="Основаной экран">
    <mxGraphModel dx="1082" dy="553" grid="1" gridSize="10" guides="1" tooltips="1" connect="1" arrows="1" fold="1" page="1" pageScale="1" pageWidth="827" pageHeight="1169" math="0" shadow="0">
      <root>
        <mxCell id="0" />
        <mxCell id="1" parent="0" />
        <mxCell id="nhwwgo375WDyuCeM9GWN-1" value="" style="rounded=0;whiteSpace=wrap;html=1;" vertex="1" parent="1">
          <mxGeometry width="650" height="420" as="geometry" />
        </mxCell>
        <mxCell id="nhwwgo375WDyuCeM9GWN-3" value="Главное меню" style="rounded=0;whiteSpace=wrap;html=1;fontSize=14;fontFamily=Times New Roman;" vertex="1" parent="1">
          <mxGeometry width="650" height="60" as="geometry" />
        </mxCell>
        <mxCell id="nhwwgo375WDyuCeM9GWN-4" value="Дополнительные функции" style="rounded=0;whiteSpace=wrap;html=1;fontFamily=Times New Roman;fontSize=14;" vertex="1" parent="1">
          <mxGeometry x="290" y="70" width="360" height="40" as="geometry" />
        </mxCell>
        <mxCell id="nhwwgo375WDyuCeM9GWN-5" value="Скачать расписание" style="rounded=0;whiteSpace=wrap;html=1;fontFamily=Times New Roman;fontSize=14;" vertex="1" parent="1">
          <mxGeometry y="70" width="170" height="40" as="geometry" />
        </mxCell>
        <mxCell id="nhwwgo375WDyuCeM9GWN-6" value="Основной календарь расписания" style="rounded=0;whiteSpace=wrap;html=1;fontFamily=Times New Roman;fontSize=14;" vertex="1" parent="1">
          <mxGeometry y="130" width="650" height="260" as="geometry" />
        </mxCell>
      </root>
    </mxGraphModel>
  </diagram>
  <diagram id="J3KstLrX1cxOR7dFgUQ1" name="Страница — 6">
    <mxGraphModel grid="1" page="1" gridSize="10" guides="1" tooltips="1" connect="1" arrows="1" fold="1" pageScale="1" pageWidth="827" pageHeight="1169" math="0" shadow="0">
      <root>
        <mxCell id="0" />
        <mxCell id="1" parent="0" />
      </root>
    </mxGraphModel>
  </diagram>
</mxfile>
